<?xml version="1.0" encoding="iso-8859-1"?>
<!-- Generator: Adobe Illustrator 19.0.0, SVG Export Plug-In . SVG Version: 6.00 Build 0)  -->
<svg xmlns="http://www.w3.org/2000/svg" xmlns:xlink="http://www.w3.org/1999/xlink" version="1.1" id="Layer_1" x="0px" y="0px" viewBox="0 0 452.13 452.13" style="enable-background:new 0 0 452.13 452.13;" xml:space="preserve" width="512" height="512">
<g>
	<path style="fill:#E6E6E6;" d="M341.048,225.094c57.21,0,103.58,46.38,103.58,103.58c0,57.21-46.37,103.58-103.58,103.58   s-103.58-46.37-103.58-103.58C237.468,271.474,283.838,225.094,341.048,225.094z"/>
	<path style="fill:#F95428;" d="M111.078,225.094c57.21,0,103.59,46.38,103.59,103.58c0,57.21-46.38,103.58-103.59,103.58   c-57.2,0-103.58-46.37-103.58-103.58C7.498,271.474,53.878,225.094,111.078,225.094z"/>
	<path style="fill:#35D8B9;" d="M226.068,19.874c57.21,0,103.58,46.37,103.58,103.58s-46.37,103.58-103.58,103.58   s-103.58-46.37-103.58-103.58S168.858,19.874,226.068,19.874z"/>
	<path style="fill:#70E5CF;" d="M226.068,19.874c39.571,0,71.645,41.893,71.645,93.58s-32.073,75.08-71.645,75.08   s-71.645-23.393-71.645-75.08S186.497,19.874,226.068,19.874z"/>
	<path style="fill:#F98169;" d="M111.083,225.094c39.571,0,71.645,41.893,71.645,93.58s-32.073,75.08-71.645,75.08   s-71.645-23.393-71.645-75.08S71.512,225.094,111.083,225.094z"/>
	<path style="fill:#FFFFFF;" d="M341.048,225.094c39.571,0,71.645,41.893,71.645,93.58s-32.073,75.08-71.645,75.08   s-71.645-23.393-71.645-75.08S301.477,225.094,341.048,225.094z"/>
</g>
<g>
	<path style="fill:#333333;" d="M337.149,123.454c0-61.251-49.831-111.083-111.082-111.083S114.985,62.203,114.985,123.454   s49.831,111.082,111.082,111.082S337.149,184.705,337.149,123.454z M226.067,219.536c-52.979,0-96.082-43.102-96.082-96.082   s43.103-96.083,96.082-96.083s96.082,43.103,96.082,96.083S279.047,219.536,226.067,219.536z"/>
	<path style="fill:#333333;" d="M341.048,217.594c-61.251,0-111.083,49.831-111.083,111.082s49.832,111.083,111.083,111.083   S452.13,389.927,452.13,328.676S402.299,217.594,341.048,217.594z M341.048,424.759c-52.98,0-96.083-43.103-96.083-96.083   s43.103-96.082,96.083-96.082c52.979,0,96.082,43.102,96.082,96.082S394.027,424.759,341.048,424.759z"/>
	<path style="fill:#333333;" d="M111.083,217.594C49.832,217.594,0,267.425,0,328.676s49.832,111.083,111.083,111.083   s111.082-49.832,111.082-111.083S172.334,217.594,111.083,217.594z M111.083,424.759c-52.98,0-96.083-43.103-96.083-96.083   s43.103-96.082,96.083-96.082c52.979,0,96.082,43.102,96.082,96.082S164.063,424.759,111.083,424.759z"/>
	<path style="fill:#333333;" d="M251.644,150.113c-14.102,14.103-37.051,14.103-51.152,0c-2.93-2.929-7.678-2.929-10.607,0   c-2.929,2.929-2.929,7.678,0,10.606c9.977,9.976,23.08,14.964,36.184,14.964s26.207-4.988,36.184-14.964   c2.929-2.929,2.929-7.678,0-10.606C259.321,147.184,254.573,147.184,251.644,150.113z"/>
	<path style="fill:#333333;" d="M74.898,363.094c-2.929,2.929-2.929,7.678,0,10.606c2.93,2.929,7.678,2.929,10.607,0   c14.103-14.104,37.053-14.103,51.153,0c1.465,1.464,3.385,2.197,5.304,2.197s3.839-0.732,5.304-2.197   c2.929-2.929,2.929-7.678,0-10.606C127.313,343.142,94.852,343.141,74.898,363.094z"/>
	<path style="fill:#333333;" d="M371.928,354.501h-61.761c-4.143,0-7.5,3.358-7.5,7.5s3.357,7.5,7.5,7.5h61.761   c4.143,0,7.5-3.358,7.5-7.5S376.07,354.501,371.928,354.501z"/>
	<circle style="fill:#333333;" cx="381.397" cy="310.23" r="7.5"/>
	<circle style="fill:#333333;" cx="300.699" cy="310.23" r="7.5"/>
	<circle style="fill:#333333;" cx="151.432" cy="310.23" r="7.5"/>
	<circle style="fill:#333333;" cx="70.734" cy="310.23" r="7.5"/>
	<circle style="fill:#333333;" cx="185.719" cy="97.447" r="7.5"/>
	<circle style="fill:#333333;" cx="266.416" cy="97.447" r="7.5"/>
</g>















</svg>
